# xmcd
#
# Track frame offsets: 
#        150
#        13622
#        25775
#        52732
#        67527
#        83247
#        94140
#        107913
#        119728
#        137714
#        149299
#        161677
#        175530
#        185024
#        220089
#        238312
#        252021
#        266436
#
# Disc length: 3733 seconds
#
# Revision: 11
# Processed by: cddbd v1.5.2PL0 Copyright (c) Steve Scherf et al.
# Submitted via: ExactAudioCopy v1.0b3
#
DISCID=f20e9312
DTITLE=The Legendary Blues Singers - Play Me The Blues...
DYEAR=2001
DGENRE=Blues
TTITLE0=Lightnin' Hopkins - Mojo Hand
TTITLE1=T-Bone Walker - No Worry Blues
TTITLE2=Jelly Roll Morton - Meaple Leaf Rag
TTITLE3=Leadbelly - The House Of The Rising Sun (In New Orleans)
TTITLE4=Lightnin' Hopkins - Coffee For Mama
TTITLE5=Lightning Slim - My Babe
TTITLE6=Jelly Roll Morton - King Porter Stomp
TTITLE7=Leadbelly - The Boll Weevil Song
TTITLE8=Lightnin' Hopkins - Devil Is Watchning You
TTITLE9=Lightning Slim - Ligtning's Bad Luck
TTITLE10=Leadbelly - John Hardy
TTITLE11=Jelly Roll Morton - Jelly Roll Blues
TTITLE12=Lightnin' Hopkins - Mary Lou
TTITLE13=Jelly Roll Morton - Wolverine Blues
TTITLE14=Lightning Slim - Hoodoo Blues
TTITLE15=Leadbelly - Where Did You Sleep Last Night
TTITLE16=Lightnin' Hopkins - Please Don't Quit Me
TTITLE17=Lightning Slim - Good Morning Heartaches
EXTD=
EXTT0=
EXTT1=
EXTT2=
EXTT3=
EXTT4=
EXTT5=
EXTT6=
EXTT7=
EXTT8=
EXTT9=
EXTT10=
EXTT11=
EXTT12=
EXTT13=
EXTT14=
EXTT15=
EXTT16=
EXTT17=
PLAYORDER=
